<svg aria-hidden="true" style="position: absolute; width: 0; height: 0; overflow: hidden;" version="1.1" xmlns="http://www.w3.org/2000/svg" xmlns:xlink="http://www.w3.org/1999/xlink">
<defs>
<symbol id="icon-back" viewBox="0 0 36 32">
<path fill="#7d18d5" style="fill: var(--color1, #7d18d5)" d="M9.6 18.769l8.031 8.031c0.508 0.508 0.762 1.154 0.762 1.938s-0.254 1.431-0.762 1.938c-0.508 0.508-1.154 0.761-1.938 0.761s-1.431-0.254-1.938-0.761l-12.738-12.738c-0.554-0.554-0.831-1.2-0.831-1.938s0.277-1.385 0.831-1.938l12.738-12.738c0.508-0.508 1.154-0.762 1.938-0.762s1.431 0.254 1.938 0.762c0.508 0.508 0.762 1.154 0.762 1.938s-0.254 1.431-0.762 1.938l-8.031 8.031h22.708c0.785 0 1.443 0.266 1.975 0.798s0.797 1.189 0.795 1.972c-0.002 0.783-0.268 1.44-0.798 1.972s-1.187 0.798-1.972 0.798h-22.708z"></path>
</symbol>
<symbol id="icon-faq-arrow-mb" viewBox="0 0 28 32">
<path fill="none" stroke="#2c0469" style="stroke: var(--color2, #2c0469)" stroke-linejoin="round" stroke-linecap="round" stroke-miterlimit="4" stroke-width="5.12" d="M14.361 3.339l-0.028 24.89M14.334 28.229l-11.188-11.213M14.334 28.229l11.213-11.188"></path>
</symbol>
<symbol id="icon-burger" viewBox="0 0 32 32">
<path fill="#2b056b" style="fill: var(--color3, #2b056b)" d="M6.737 0h18.526c3.721 0 6.737 3.016 6.737 6.737v18.526c0 3.721-3.016 6.737-6.737 6.737h-18.526c-3.721 0-6.737-3.016-6.737-6.737v-18.526c0-3.721 3.016-6.737 6.737-6.737z"></path>
<path fill="none" stroke="#edf3f8" style="stroke: var(--color4, #edf3f8)" stroke-linejoin="round" stroke-linecap="round" stroke-miterlimit="4" stroke-width="1.6842" d="M14.556 23.579h11.549M5.895 16.842h20.211M14.556 10.105h11.549"></path>
</symbol>
<symbol id="icon-discord" viewBox="0 0 32 32">
<path fill="#5865f2" style="fill: var(--color5, #5865f2)" d="M24.5 0h-17c-4.142 0-7.5 3.358-7.5 7.5v17c0 4.142 3.358 7.5 7.5 7.5h17c4.142 0 7.5-3.358 7.5-7.5v-17c0-4.142-3.358-7.5-7.5-7.5z"></path>
<path fill="#fff" style="fill: var(--color6, #fff)" d="M24.663 8.099c-1.621-0.744-3.331-1.274-5.089-1.578-0.016-0.003-0.032-0.001-0.047 0.006s-0.027 0.018-0.035 0.033c-0.22 0.391-0.463 0.901-0.634 1.301-1.922-0.288-3.833-0.288-5.715 0-0.171-0.41-0.423-0.911-0.643-1.301-0.008-0.014-0.020-0.025-0.035-0.032s-0.031-0.009-0.047-0.007c-1.758 0.303-3.468 0.834-5.089 1.578-0.014 0.006-0.025 0.016-0.034 0.029-3.241 4.842-4.129 9.565-3.693 14.23 0.003 0.023 0.014 0.044 0.033 0.058 2.138 1.57 4.21 2.524 6.243 3.156 0.016 0.005 0.033 0.004 0.048-0.001s0.029-0.015 0.039-0.028c0.481-0.657 0.909-1.349 1.277-2.077 0.005-0.010 0.008-0.021 0.008-0.032s-0.001-0.022-0.005-0.033-0.010-0.020-0.018-0.028c-0.008-0.008-0.018-0.014-0.028-0.018-0.68-0.258-1.327-0.572-1.95-0.93-0.011-0.007-0.021-0.016-0.028-0.027s-0.011-0.024-0.012-0.037 0.002-0.026 0.007-0.038c0.005-0.012 0.014-0.022 0.024-0.030 0.131-0.098 0.261-0.199 0.387-0.303 0.011-0.009 0.025-0.015 0.039-0.017s0.029 0 0.042 0.006c4.091 1.868 8.521 1.868 12.564 0 0.013-0.006 0.028-0.009 0.042-0.007s0.028 0.008 0.040 0.017c0.127 0.105 0.256 0.206 0.388 0.305 0.011 0.008 0.019 0.018 0.025 0.030s0.008 0.025 0.007 0.038c-0.001 0.013-0.005 0.026-0.011 0.037s-0.016 0.021-0.028 0.027c-0.623 0.364-1.276 0.674-1.951 0.928-0.011 0.004-0.020 0.010-0.028 0.018s-0.014 0.017-0.018 0.028c-0.004 0.011-0.006 0.022-0.005 0.033s0.004 0.022 0.009 0.032c0.374 0.722 0.8 1.416 1.276 2.076 0.010 0.013 0.023 0.023 0.039 0.029s0.033 0.006 0.049 0.001c2.043-0.632 4.114-1.585 6.252-3.156 0.009-0.007 0.017-0.015 0.022-0.025s0.009-0.021 0.010-0.032c0.521-5.393-0.873-10.077-3.696-14.229-0.007-0.014-0.018-0.024-0.032-0.030zM11.854 19.517c-1.232 0-2.247-1.131-2.247-2.52s0.995-2.52 2.247-2.52c1.261 0 2.266 1.141 2.247 2.52 0 1.389-0.995 2.52-2.247 2.52zM20.161 19.517c-1.232 0-2.247-1.131-2.247-2.52s0.995-2.52 2.247-2.52c1.261 0 2.266 1.141 2.247 2.52 0 1.389-0.985 2.52-2.247 2.52z"></path>
</symbol>
<symbol id="icon-youtube" viewBox="0 0 46 32">
<path fill="#f00" style="fill: var(--color7, #f00)" d="M44.705 4.991c-0.262-0.965-0.774-1.844-1.484-2.551s-1.593-1.216-2.562-1.477c-3.548-0.963-17.825-0.963-17.825-0.963s-14.278 0.029-17.826 0.992c-0.969 0.261-1.852 0.77-2.562 1.477s-1.221 1.586-1.483 2.551c-1.073 6.275-1.489 15.837 0.029 21.861 0.262 0.965 0.774 1.844 1.483 2.551s1.593 1.216 2.562 1.477c3.547 0.963 17.825 0.963 17.825 0.963s14.278 0 17.825-0.963c0.969-0.261 1.852-0.77 2.562-1.477s1.221-1.586 1.484-2.551c1.132-6.284 1.481-15.84-0.029-21.891z"></path>
<path fill="#fff" style="fill: var(--color6, #fff)" d="M18.29 22.766l11.844-6.83-11.844-6.83v13.66z"></path>
</symbol>
<symbol id="icon-faq-arrow" viewBox="0 0 32 32">
<path fill="none" stroke="#2c0469" style="stroke: var(--color2, #2c0469)" stroke-linejoin="round" stroke-linecap="round" stroke-miterlimit="4" stroke-width="2.4151" d="M9.333 22.667l13.333-13.333M22.667 9.334v12M22.667 9.334h-12"></path>
</symbol>
<symbol id="icon-close" viewBox="0 0 32 32">
<path fill="none" stroke="#e0e0e0" style="stroke: var(--color8, #e0e0e0)" stroke-linejoin="round" stroke-linecap="round" stroke-miterlimit="4" stroke-width="2.6667" d="M6.667 6.667l9.333 9.333M16 16l9.333-9.333M16 16l-9.333 9.333M16 16l9.333 9.333"></path>
</symbol>
</defs>
</svg>
